<?xml version="1.0" encoding="UTF-8" standalone="no"?>
<svg
   xmlns:dc="http://purl.org/dc/elements/1.1/"
   xmlns:cc="http://creativecommons.org/ns#"
   xmlns:rdf="http://www.w3.org/1999/02/22-rdf-syntax-ns#"
   xmlns:svg="http://www.w3.org/2000/svg"
   xmlns="http://www.w3.org/2000/svg"
   xmlns:sodipodi="http://sodipodi.sourceforge.net/DTD/sodipodi-0.dtd"
   xmlns:inkscape="http://www.inkscape.org/namespaces/inkscape"
   width="500"
   height="212"
   id="svg4871"
   version="1.1"
   inkscape:version="0.48.4 r9939"
   sodipodi:docname="drawing.svg"
   viewBox="0 -10 1000 425"
   >
  <defs
     id="defs4873" />
  <sodipodi:namedview
     id="base"
     pagecolor="#ffffff"
     bordercolor="#666666"
     borderopacity="1.0"
     inkscape:pageopacity="0.0"
     inkscape:pageshadow="2"
     inkscape:zoom="0.44725269"
     inkscape:cx="573.50824"
     inkscape:cy="684.67522"
     inkscape:document-units="px"
     inkscape:current-layer="layer1"
     showgrid="false"
     width="1920px"
     inkscape:window-width="1358"
     inkscape:window-height="747"
     inkscape:window-x="0"
     inkscape:window-y="19"
     inkscape:window-maximized="0"
     fit-margin-top="0"
     fit-margin-left="0"
     fit-margin-right="0"
     fit-margin-bottom="0" />
  <metadata
     id="metadata4876">
    <rdf:RDF>
      <cc:Work
         rdf:about="">
        <dc:format>image/svg+xml</dc:format>
        <dc:type
           rdf:resource="http://purl.org/dc/dcmitype/StillImage" />
        <dc:title />
      </cc:Work>
    </rdf:RDF>
  </metadata>
  <g
     inkscape:label="Layer 1"
     inkscape:groupmode="layer"
     id="layer1"
     transform="translate(-1.3125275,-628.60194)">
    <path
       style="fill:#c4c1bc;fill-opacity:1;stroke:none"
       d="m 200.34377,636.46616 0,0.1875 C 89.681487,641.00842 1.3125275,732.0801 1.3125275,843.80991 c 0,114.50838 92.8353595,207.31249 207.3437425,207.31249 42.6828,0 82.3734,-12.8891 115.34375,-35 5.8075,-3.8947 7.64395,-5.0332 13.40625,-7.875 5.5785,-2.7511 12.50665,-4.6562 16.40625,-4.6562 l 129.25,0 3.875,0 129.28125,0 c 3.8996,0 10.7965,1.9051 16.375,4.6562 5.7623,2.8418 7.63,3.9803 13.4375,7.875 32.9704,22.1109 72.6297,35 115.3125,35 114.5084,0 207.3438,-92.80411 207.3437,-207.31249 0,-111.72981 -88.3689,-202.80149 -199.0312,-207.15625 l 0,-0.1875 -8.3125,0 -274.40625,0 -3.875,0 -274.40625,0 -8.3125,0 z"
       id="path4944"
       inkscape:connector-curvature="0" />
    <path
       sodipodi:type="arc"
       style="fill:#747b81;fill-opacity:1;stroke:none"
       id="path5603"
       sodipodi:cx="1241.7771"
       sodipodi:cy="545.25275"
       sodipodi:rx="144.68755"
       sodipodi:ry="144.68755"
       d="m 1386.4646,545.25275 c 0,79.90872 -64.7788,144.68754 -144.6875,144.68754 -79.9087,0 -144.6875,-64.77882 -144.6875,-144.68754 0,-79.90873 64.7788,-144.68755 144.6875,-144.68755 79.9087,0 144.6875,64.77882 144.6875,144.68755 z"
       transform="matrix(1.2565349,0,0,1.2565349,-797.66052,158.67135)" />
    <path
       style="fill:#c4c1bc;fill-opacity:1;stroke:none"
       d="m 654.10887,635.77417 40.3204,0 33.9345,0 36.7312,0 c 0,0 2.6731,-0.0383 4.0088,0 3.775,0.10826 7.5469,0.34337 11.311,0.64927 3.465,0.2816 6.7972,0.62384 10.3722,1.09142 3.6295,0.51893 6.6207,0.79185 9.9035,1.36446 2.632,0.45908 5.245,1.02958 7.8415,1.65877 2.6655,0.64592 5.3237,1.40889 7.9363,2.17097 2.1519,0.6277 4.2502,1.28931 6.3614,1.97763 3.6865,1.20191 7.9359,2.65995 11.0088,3.75751 1.7036,0.63406 3.0398,1.14299 4.9481,1.92136 1.9084,0.77837 4.3791,1.8085 6.4892,2.77552 2.1849,1.0013 4.3896,2.0437 6.5109,3.10794 1.9984,1.00257 4.0237,2.04475 5.9658,3.08865 0.9377,0.50399 1.8069,0.96055 2.7182,1.44201 0.6429,0.33974 1.2851,0.69812 1.9281,1.0465 0.335,0.18151 1.0053,0.54386 1.0053,0.54386 l 0.6592,-5.45497 c -0.2656,-0.81403 -1.0099,-1.40516 -1.6607,-1.73218 -1.1279,-0.70484 -2.1553,-1.31828 -3.2339,-1.97588 -1.4439,-0.88033 -2.8666,-1.79666 -4.3343,-2.63684 -1.0068,-0.57635 -2.0284,-1.12774 -3.0653,-1.64803 -1.2301,-0.61726 -2.4981,-1.1561 -3.7411,-1.74691 -1.0141,-0.482 -1.9695,-0.97162 -3.0323,-1.46674 -1.0628,-0.49512 -0.8197,-0.46399 -3.3455,-1.49971 -2.5258,-1.03572 -8.4374,-3.12854 -11.9124,-4.44119 -2.6724,-0.9451 -4.0954,-1.3878 -5.9028,-2.01907 -3.3015,-1.05884 -6.1511,-1.69749 -10.3496,-2.80165 -2.5408,-0.66819 -3.7782,-1.18612 -6.6416,-1.68099 -2.5356,-0.43822 -4.4983,-0.88747 -6.4372,-1.16445 l -2.4127,-0.36822 c 0,0 -1.7733,-0.2715 -3.0983,-0.44496 -1.325,-0.17346 -3.5086,-0.44201 -4.8542,-0.57398 -1.516,-0.14464 -2.5805,-0.29828 -5.9935,-0.70817 -3.413,-0.4099 -7.8908,-0.70566 -11.783,-1.03026 -1.974,-0.16575 -6.2427,-0.37388 -6.2427,-0.37388 l -12.3932,0 -16.4967,0 -15.4256,0 -15.03,0 -15.6727,0 -14.8323,0 -10.5638,0 -2.7193,0 -3.4773,0.31313 -2.6039,0.95585 -1.7469,1.3349 -1.0053,1.54091 z"
       id="path5631"
       inkscape:connector-curvature="0"
       sodipodi:nodetypes="ccccaacaasaczssssscccaaasczccsscczczccccccccccccccc" />
    <path
       style="fill:#c4c1bc;fill-opacity:1;stroke:none"
       d="m 315.9055,635.77417 -40.32035,0 -33.9345,0 -36.7312,0 c 0,0 -2.6731,-0.0383 -4.0088,0 -3.775,0.10826 -7.5469,0.34337 -11.31099,0.64927 -3.465,0.2816 -6.7972,0.62384 -10.3722,1.09142 -3.6295,0.51893 -6.6207,0.79185 -9.9035,1.36446 -2.632,0.45908 -5.245,1.02958 -7.8415,1.65877 -2.6655,0.64592 -5.3237,1.40889 -7.9363,2.17097 -2.1519,0.6277 -4.2502,1.28931 -6.3614,1.97763 -3.6865,1.20191 -7.9359,2.65995 -11.0088,3.75751 -1.7036,0.63406 -3.0398,1.14299 -4.9481,1.92136 -1.9084,0.77837 -4.3791,1.8085 -6.4892,2.77552 -2.1849,1.0013 -4.3896,2.0437 -6.5109,3.10794 -1.9984,1.00257 -4.0237,2.04475 -5.9658,3.08865 -0.9377,0.50399 -1.8069,0.96055 -2.7182,1.44201 -0.6429,0.33974 -1.2851,0.69812 -1.9281,1.0465 -0.335,0.18151 -1.0053,0.54386 -1.0053,0.54386 l -0.6592,-5.45497 c 0.2656,-0.81403 1.0099,-1.40516 1.6607,-1.73218 1.1279,-0.70484 2.1553,-1.31828 3.2339,-1.97588 1.4439,-0.88033 2.8666,-1.79666 4.3343,-2.63684 1.0068,-0.57635 2.0284,-1.12774 3.0653,-1.64803 1.2301,-0.61726 2.4981,-1.1561 3.7411,-1.74691 1.0141,-0.482 1.9695,-0.97162 3.0323,-1.46674 1.0628,-0.49512 0.8197,-0.46399 3.3455,-1.49971 2.5258,-1.03572 8.4374,-3.12854 11.9124,-4.44119 2.6724,-0.9451 4.0954,-1.3878 5.9028,-2.01907 3.3015,-1.05884 6.1511,-1.69749 10.3496,-2.80165 2.5408,-0.66819 3.7782,-1.18612 6.6416,-1.68099 2.5356,-0.43822 4.4983,-0.88747 6.4372,-1.16445 l 2.4127,-0.36822 c 0,0 1.7733,-0.2715 3.0983,-0.44496 1.325,-0.17346 3.5086,-0.44201 4.8542,-0.57398 1.516,-0.14464 2.5805,-0.29828 5.9935,-0.70817 3.413,-0.4099 7.89079,-0.70566 11.78299,-1.03026 1.974,-0.16575 6.2427,-0.37388 6.2427,-0.37388 l 12.3932,0 16.4967,0 15.4256,0 15.03,0 15.6727,0 14.8323,0 10.56375,0 2.7193,0 3.4773,0.31313 2.6039,0.95585 1.7469,1.3349 1.0053,1.54091 z"
       id="path5631-7"
       inkscape:connector-curvature="0"
       sodipodi:nodetypes="ccccaacaasaczssssscccaaasczccsscczczccccccccccccccc" />
    <path
       sodipodi:type="arc"
       style="fill:none;stroke:#747b81;stroke-opacity:1"
       id="path5695"
       sodipodi:cx="578.75018"
       sodipodi:cy="464.70502"
       sodipodi:rx="102.92207"
       sodipodi:ry="102.92207"
       d="m 681.67226,464.70502 c 0,56.84229 -46.07979,102.92207 -102.92208,102.92207 -56.84229,0 -102.92207,-46.07978 -102.92207,-102.92207 0,-56.84229 46.07978,-102.92208 102.92207,-102.92208 56.84229,0 102.92208,46.07979 102.92208,102.92208 z"
       transform="matrix(1.1159421,0,0,1.1159421,-438.51308,325.21656)" />
    <path
       inkscape:connector-curvature="0"
       style="fill:#485053;fill-opacity:1;stroke:#1a1c1b;stroke-width:3;stroke-linecap:butt;stroke-linejoin:bevel;stroke-miterlimit:4;stroke-opacity:1;stroke-dasharray:none"
       d="m 190.0261,762.87858 c -4.56016,0 -8.21875,3.65859 -8.21875,8.21875 l 0,47.1563 -47.15625,0 c -4.56016,0 -8.25,3.6898 -8.25,8.25 l 0,34.5937 c 0,4.5602 3.68984,8.2187 8.25,8.2187 l 47.15625,0 0,47.1563 c 0,4.5602 3.65859,8.25 8.21875,8.25 l 34.625,0 c 4.56016,0 8.21875,-3.6898 8.21875,-8.25 l 0,-47.1563 47.15625,0 c 4.56016,0 8.25,-3.6585 8.25,-8.2187 l 0,-34.5937 c 0,-4.5602 -3.68984,-8.25 -8.25,-8.25 l -47.15625,0 0,-47.1563 c 0,-4.56016 -3.65859,-8.21875 -8.21875,-8.21875 l -34.625,0 z"
       id="rect4752-7" />
    <path
       style="fill:#485053;fill-opacity:1;stroke:#1a1c1b;stroke-opacity:1"
       inkscape:transform-center-x="-5.1055901"
       inkscape:transform-center-y="2.3103264"
       d="m 247.1497,860.29635 0.031,-32.9918 32.5954,16.5197 z"
       id="path6000"
       inkscape:connector-curvature="0" />
    <path
       style="fill:#485053;fill-opacity:1;stroke:#1a1c1b;stroke-opacity:1"
       inkscape:transform-center-x="5.1055901"
       inkscape:transform-center-y="2.3103264"
       d="m 167.5275,860.29636 -0.031,-32.9918 -32.5954,16.5197 z"
       id="path6000-8"
       inkscape:connector-curvature="0" />
    <path
       style="fill:#485053;fill-opacity:1;stroke:#1a1c1b;stroke-opacity:1"
       inkscape:transform-center-x="-2.3103301"
       inkscape:transform-center-y="-5.1055936"
       d="m 223.8345,804.00498 -32.9918,-0.031 16.5197,-32.5954 z"
       id="path6000-5"
       inkscape:connector-curvature="0" />
    <path
       style="fill:#485053;fill-opacity:1;stroke:#1a1c1b;stroke-opacity:1"
       inkscape:transform-center-x="-2.3103301"
       inkscape:transform-center-y="5.1055936"
       d="m 223.8345,883.59593 -32.9918,0.031 16.5197,32.5954 z"
       id="path6000-5-9"
       inkscape:connector-curvature="0" />
    <rect
       style="fill:#c4c1bc;fill-opacity:1;stroke:none"
       id="rect6093-8"
       width="210.52827"
       height="93.468582"
       x="-34.785816"
       y="1030.5923"
       ry="46.734291"
       transform="matrix(0.78928545,-0.61402645,0.61402645,0.78928545,0,0)" />
    <path
       sodipodi:type="arc"
       style="fill:#485053;fill-opacity:1;stroke:#1a1c1b;stroke-width:0.78510028;stroke-miterlimit:4;stroke-opacity:1;stroke-dasharray:none"
       id="path6149"
       sodipodi:cx="1216.689"
       sodipodi:cy="468.91046"
       sodipodi:rx="28.928564"
       sodipodi:ry="28.928564"
       d="m 1245.6175,468.91046 c 0,15.97681 -12.9517,28.92857 -28.9285,28.92857 -15.9768,0 -28.9286,-12.95176 -28.9286,-28.92857 0,-15.9768 12.9518,-28.92856 28.9286,-28.92856 15.9768,0 28.9285,12.95176 28.9285,28.92856 z"
       transform="matrix(1.2737226,0,0,1.2737226,-786.46326,173.91218)" />
    <path
       sodipodi:type="arc"
       style="fill:#485053;fill-opacity:1;stroke:#1a1c1b;stroke-width:0.78510028;stroke-miterlimit:4;stroke-opacity:1;stroke-dasharray:none"
       id="path6149-3"
       sodipodi:cx="1216.689"
       sodipodi:cy="468.91046"
       sodipodi:rx="28.928564"
       sodipodi:ry="28.928564"
       d="m 1245.6175,468.91046 c 0,15.97681 -12.9517,28.92857 -28.9285,28.92857 -15.9768,0 -28.9286,-12.95176 -28.9286,-28.92857 0,-15.9768 12.9518,-28.92856 28.9286,-28.92856 15.9768,0 28.9285,12.95176 28.9285,28.92856 z"
       transform="matrix(1.2737226,0,0,1.2737226,-878.7162,245.64936)" />
    <rect
       style="fill:#c4c1bc;fill-opacity:1;stroke:none"
       id="rect6093-8-7"
       width="210.52827"
       height="93.468582"
       x="-5.8200593"
       y="1142.7551"
       ry="46.734291"
       transform="matrix(0.78928545,-0.61402645,0.61402645,0.78928545,0,0)" />
    <path
       sodipodi:type="arc"
       style="fill:#485053;fill-opacity:1;stroke:#1a1c1b;stroke-width:0.78510028;stroke-miterlimit:4;stroke-opacity:1;stroke-dasharray:none"
       id="path6149-1"
       sodipodi:cx="1216.689"
       sodipodi:cy="468.91046"
       sodipodi:rx="28.928564"
       sodipodi:ry="28.928564"
       d="m 1245.6175,468.91046 c 0,15.97681 -12.9517,28.92857 -28.9285,28.92857 -15.9768,0 -28.9286,-12.95176 -28.9286,-28.92857 0,-15.9768 12.9518,-28.92856 28.9286,-28.92856 15.9768,0 28.9285,12.95176 28.9285,28.92856 z"
       transform="matrix(1.2737226,0,0,1.2737226,-694.72988,244.65501)" />
    <path
       sodipodi:type="arc"
       style="fill:#485053;fill-opacity:1;stroke:#1a1c1b;stroke-width:0.78510028;stroke-miterlimit:4;stroke-opacity:1;stroke-dasharray:none"
       id="path6149-3-8"
       sodipodi:cx="1216.689"
       sodipodi:cy="468.91046"
       sodipodi:rx="28.928564"
       sodipodi:ry="28.928564"
       d="m 1245.6175,468.91046 c 0,15.97681 -12.9517,28.92857 -28.9285,28.92857 -15.9768,0 -28.9286,-12.95176 -28.9286,-28.92857 0,-15.9768 12.9518,-28.92856 28.9286,-28.92856 15.9768,0 28.9285,12.95176 28.9285,28.92856 z"
       transform="matrix(1.2737226,0,0,1.2737226,-786.98288,316.39217)" />
    <rect
       style="fill:#485053;fill-opacity:1;stroke:none"
       id="rect6211-4"
       width="81.50676"
       height="30.617825"
       x="-166.43669"
       y="983.2132"
       ry="15.308912"
       transform="matrix(0.79913723,-0.60114864,0.60114864,0.79913723,0,0)" />
    <rect
       style="fill:#485053;fill-opacity:1;stroke:none"
       id="rect6211-4-4"
       width="81.50676"
       height="30.617825"
       x="-250.57005"
       y="919.92401"
       ry="15.308912"
       transform="matrix(0.79913723,-0.60114864,0.60114864,0.79913723,0,0)" />
    <g
       style="font-size:22px;font-style:italic;font-variant:normal;font-weight:normal;font-stretch:normal;text-align:start;line-height:125%;letter-spacing:0px;word-spacing:0px;writing-mode:lr-tb;text-anchor:start;fill:#747b81;fill-opacity:1;stroke:#747b81;stroke-opacity:1;font-family:Agency FB;-inkscape-font-specification:Agency FB Italic"
       id="text3017-7">
      <path
         d="m 365.11884,949.19037 c -0.0716,0.35091 -0.23992,0.63737 -0.50489,0.85937 -0.25782,0.22201 -0.56218,0.33301 -0.91308,0.33301 l -4.23243,0 c -0.35091,0 -0.61946,-0.111 -0.80566,-0.33301 -0.17904,-0.222 -0.23275,-0.50846 -0.16113,-0.85937 l 0.85937,-4.26465 1.49317,0 -0.82715,4.13574 3.63086,0 0.79492,-4.00683 -3.5127,-5.60743 c -0.25065,-0.3867 -0.32943,-0.81281 -0.23632,-1.27832 l 0.6875,-3.40527 c 0.0716,-0.35089 0.2399,-0.63735 0.50488,-0.85937 0.27213,-0.22199 0.58365,-0.333 0.93457,-0.33301 l 4.23242,0 c 0.3509,10e-6 0.6123,0.11102 0.78418,0.33301 0.17903,0.22202 0.23274,0.50848 0.16113,0.85937 l -0.78418,3.91016 -1.49316,0 0.75195,-3.78125 -3.63086,0 -0.70898,3.54492 3.54492,5.60742 c 0.23632,0.3724 0.30794,0.79135 0.21485,1.25684 l -0.78418,3.88867"
         id="path3143"
         inkscape:connector-curvature="0" />
      <path
         d="m 377.34344,950.38275 -5.52148,0 3.36231,-16.81152 5.45703,0 -0.26856,1.32129 -3.96387,0 -1.24609,6.27343 3.60938,0 -0.26856,1.34278 -3.60937,0 -1.31055,6.55273 4.02832,0 -0.26856,1.32129"
         id="path3145"
         inkscape:connector-curvature="0" />
      <path
         d="m 389.35321,950.38275 -5.37109,0 3.3623,-16.81152 1.49317,0 -3.09375,15.49023 3.87793,0 -0.26856,1.32129"
         id="path3147"
         inkscape:connector-curvature="0" />
      <path
         d="m 401.23407,950.38275 -5.52148,0 3.3623,-16.81152 5.45703,0 -0.26855,1.32129 -3.96387,0 -1.24609,6.27343 3.60937,0 -0.26855,1.34278 -3.60938,0 -1.31055,6.55273 4.02832,0 -0.26855,1.32129"
         id="path3149"
         inkscape:connector-curvature="0" />
      <path
         d="m 414.84442,949.19037 c -0.0716,0.35091 -0.2435,0.63737 -0.51562,0.85937 -0.27215,0.22201 -0.58367,0.33301 -0.93457,0.33301 l -4.32911,0 c -0.35091,0 -0.61588,-0.111 -0.79492,-0.33301 -0.17904,-0.222 -0.23275,-0.50846 -0.16113,-0.85937 l 2.88965,-14.42676 c 0.0716,-0.35089 0.2399,-0.63735 0.50488,-0.85937 0.26497,-0.22199 0.57291,-0.333 0.92383,-0.33301 l 4.3291,0 c 0.3509,10e-6 0.61946,0.11102 0.80566,0.33301 0.18619,0.22202 0.24348,0.50848 0.17188,0.85937 l -0.78418,3.91016 -1.50391,0 0.75196,-3.78125 -3.73828,0 -2.8252,14.16894 3.73828,0 0.82715,-4.13574 1.50391,0 -0.85938,4.26465"
         id="path3151"
         inkscape:connector-curvature="0" />
      <path
         d="m 430.42059,934.89252 -2.59961,0 -3.09375,15.49023 -1.49316,0 3.09375,-15.49023 -2.62109,0 0.26855,-1.32129 6.71387,0 -0.26856,1.32129"
         id="path3153"
         inkscape:connector-curvature="0" />
    </g>
    <g
       style="font-size:22px;font-style:italic;font-variant:normal;font-weight:normal;font-stretch:normal;text-align:start;line-height:125%;letter-spacing:0px;word-spacing:0px;writing-mode:lr-tb;text-anchor:start;fill:#747b81;fill-opacity:1;stroke:#747b81;stroke-opacity:1;font-family:Agency FB;-inkscape-font-specification:Agency FB Italic"
       id="text3017-7-2">
      <path
         d="m 475.92062,949.19037 c -0.0716,0.35091 -0.23991,0.63737 -0.50488,0.85937 -0.25782,0.22201 -0.56218,0.33301 -0.91308,0.33301 l -4.23243,0 c -0.35091,0 -0.61946,-0.111 -0.80566,-0.33301 -0.17904,-0.222 -0.23275,-0.50846 -0.16113,-0.85937 l 0.85937,-4.26465 1.49317,0 -0.82715,4.13574 3.63086,0 0.79492,-4.00683 -3.5127,-5.60743 c -0.25065,-0.3867 -0.32943,-0.81281 -0.23633,-1.27832 l 0.6875,-3.40527 c 0.0716,-0.35089 0.23991,-0.63735 0.50489,-0.85937 0.27213,-0.22199 0.58365,-0.333 0.93457,-0.33301 l 4.23242,0 c 0.3509,10e-6 0.61229,0.11102 0.78418,0.33301 0.17902,0.22202 0.23274,0.50848 0.16113,0.85937 l -0.78418,3.91016 -1.49316,0 0.75195,-3.78125 -3.63086,0 -0.70898,3.54492 3.54492,5.60742 c 0.23632,0.3724 0.30793,0.79135 0.21484,1.25684 l -0.78418,3.88867"
         id="path3132"
         inkscape:connector-curvature="0" />
      <path
         d="m 491.50754,934.89252 -2.59961,0 -3.09375,15.49023 -1.49317,0 3.09375,-15.49023 -2.62109,0 0.26856,-1.32129 6.71386,0 -0.26855,1.32129"
         id="path3134"
         inkscape:connector-curvature="0" />
      <path
         d="m 501.26144,950.38275 -1.48242,0 0.16114,-3.73828 -3.34083,0 -1.34277,3.73828 -1.43945,0 0.0107,-0.043 6.35938,-16.81152 1.47168,0 -0.39747,16.85449 m -1.25683,-5.05957 0.35449,-9.10937 -3.30859,9.10937 2.9541,0"
         id="path3136"
         inkscape:connector-curvature="0" />
      <path
         d="m 514.74289,950.38275 -1.56836,0 -1.32129,-9.00195 0.25781,-0.30078 2.66407,0 1.23535,-6.1875 -3.83496,0 -3.09375,15.49023 -1.49317,0 3.36231,-16.81152 5.6289,0 c 0.3509,10e-6 0.61588,0.11102 0.79493,0.33301 0.17902,0.22202 0.23273,0.50848 0.16113,0.85937 l -1.27832,6.38086 c -0.16473,0.80925 -0.79135,1.21388 -1.87988,1.21387 -0.10743,10e-6 -0.26499,-0.004 -0.47266,-0.0107 -0.20053,-0.0143 -0.34734,-0.0215 -0.44043,-0.0215 0.42968,2.67839 0.85579,5.36394 1.27832,8.05664"
         id="path3138"
         inkscape:connector-curvature="0" />
      <path
         d="m 530.17941,934.89252 -2.59961,0 -3.09375,15.49023 -1.49316,0 3.09375,-15.49023 -2.62109,0 0.26855,-1.32129 6.71387,0 -0.26856,1.32129"
         id="path3140"
         inkscape:connector-curvature="0" />
    </g>
    <g
       style="font-size:32px;font-style:italic;font-variant:normal;font-weight:normal;font-stretch:normal;text-align:start;line-height:125%;letter-spacing:0px;word-spacing:0px;writing-mode:lr-tb;text-anchor:start;fill:#d3d4d6;fill-opacity:1;stroke:#d3d4d6;stroke-opacity:1;font-family:Agency FB;-inkscape-font-specification:Agency FB Italic"
       id="text3017-7-6-55">
      <path
         d="m 618.15527,871.32562 -4.9375,9.89063 c -0.57292,0.98959 -1.40105,2.64063 -2.48437,4.95312 l -1.89063,9.46875 -2.17187,0 1.89062,-9.46875 c 0.0104,-0.79165 -0.0469,-1.62499 -0.17187,-2.5 -0.19792,-1.49998 -0.30209,-2.31769 -0.3125,-2.45312 l -1,-9.89063 c -10e-6,-0.0104 0.0104,-0.0573 0.0312,-0.14062 l 2.20312,0 0.90625,12.23437 5.78125,-12.23437 2.1875,0 c -0.0104,0.0729 -0.0208,0.11981 -0.0312,0.14062"
         id="path3156"
         inkscape:connector-curvature="0" />
    </g>
    <g
       style="font-size:32px;font-style:italic;font-variant:normal;font-weight:normal;font-stretch:normal;text-align:start;line-height:125%;letter-spacing:0px;word-spacing:0px;writing-mode:lr-tb;text-anchor:start;fill:#d3d4d6;fill-opacity:1;stroke:#d3d4d6;stroke-opacity:1;font-family:Agency FB;-inkscape-font-specification:Agency FB Italic"
       id="text3017-7-6-5-3">
      <path
         d="m 824.72937,741.1618 -2.23437,0 -1.25,-10.04687 -5.28125,10.04687 -2.17188,0 c 0.0104,-0.0729 0.0208,-0.11458 0.0312,-0.125 l 6.82813,-12.39062 c -1.16668,-7.91665 -1.73959,-11.89581 -1.71875,-11.9375 l 2.28125,0 1.07812,9.28125 4.90625,-9.28125 2.17188,0 c -0.0104,0.0729 -0.0208,0.11982 -0.0312,0.14062 l -6.39063,11.67188 c 1.21874,8.38542 1.81249,12.59896 1.78125,12.64062"
         id="path3123"
         inkscape:connector-curvature="0" />
    </g>
    <g
       style="font-size:32px;font-style:italic;font-variant:normal;font-weight:normal;font-stretch:normal;text-align:start;line-height:125%;letter-spacing:0px;word-spacing:0px;writing-mode:lr-tb;text-anchor:start;fill:#d3d4d6;fill-opacity:1;stroke:#d3d4d6;stroke-opacity:1;font-family:Agency FB;-inkscape-font-specification:Agency FB Italic"
       id="text3017-7-6-2-3">
      <path
         d="m 707.55676,969.1579 c -0.10418,0.51042 -0.34897,0.92708 -0.73437,1.25 -0.38543,0.32291 -0.83335,0.48437 -1.34375,0.48437 l -8.0625,0 4.89062,-24.45312 8,0 c 0.5104,2e-5 0.89582,0.16148 1.15625,0.48437 0.2604,0.32294 0.33853,0.73961 0.23438,1.25 l -1.45313,7.26563 c -0.13543,0.64585 -0.53647,1.18751 -1.20312,1.625 -0.64585,0.34376 -1.28647,0.68751 -1.92188,1.03125 l 1.60938,1.1875 c 0.46873,0.33334 0.6354,0.85418 0.5,1.5625 l -1.67188,8.3125 m 0.4375,-13.4375 1.46875,-7.35938 -5.375,0 -1.76562,8.82813 3.20312,0 2.46875,-1.46875 m -2.57812,13.25 1.6875,-8.45313 -1.92188,-1.4375 -3.23437,0 -1.96875,9.89063 5.4375,0"
         id="path3129"
         inkscape:connector-curvature="0" />
    </g>
    <g
       style="font-size:32px;font-style:italic;font-variant:normal;font-weight:normal;font-stretch:normal;text-align:start;line-height:125%;letter-spacing:0px;word-spacing:0px;writing-mode:lr-tb;text-anchor:start;fill:#d3d4d6;fill-opacity:1;stroke:#d3d4d6;stroke-opacity:1;font-family:Agency FB;-inkscape-font-specification:Agency FB Italic"
       id="text3017-7-6-4-9">
      <path
         d="m 918.10242,814.02551 -2.15625,0 0.23437,-5.4375 -4.85937,0 -1.95313,5.4375 -2.09375,0 0.0156,-0.0625 9.25,-24.45312 2.14062,0 -0.57812,24.51562 m -1.82813,-7.35937 0.51563,-13.25 -4.8125,13.25 4.29687,0"
         id="path3126"
         inkscape:connector-curvature="0" />
    </g>
    <rect
       style="fill:#ffffff;fill-opacity:1;stroke:none"
       id="rect6211-4-4-2"
       width="81.50676"
       height="30.617825"
       x="533.39093"
       y="1241.5049"
       ry="15.308912"
       transform="matrix(0.79913723,-0.60114864,0.60114864,0.79913723,0,0)" />
    <path
       sodipodi:type="arc"
       style="opacity:0.98999999;fill:#ffffff;fill-opacity:1;stroke:#ffffff;stroke-width:0.78510028;stroke-miterlimit:4;stroke-opacity:1;stroke-dasharray:none"
       id="path6149-4"
       sodipodi:cx="1216.689"
       sodipodi:cy="468.91046"
       sodipodi:rx="28.928564"
       sodipodi:ry="28.928564"
       d="m 1245.6175,468.91046 c 0,15.97681 -12.9517,28.92857 -28.9285,28.92857 -15.9768,0 -28.9286,-12.95176 -28.9286,-28.92857 0,-15.9768 12.9518,-28.92856 28.9286,-28.92856 15.9768,0 28.9285,12.95176 28.9285,28.92856 z"
       transform="matrix(1.2737226,0,0,1.2737226,-262.36882,68.687054)" />
    <path
       style="fill:#ffffff;fill-opacity:1;stroke:#ffffff;stroke-opacity:1"
       inkscape:transform-center-x="-2.3103301"
       inkscape:transform-center-y="-5.1055936"
       d="m 1358.1942,661.72834 -32.9918,-0.031 16.5197,-32.5954 z"
       id="path6000-5-0"
       inkscape:connector-curvature="0" />
    <g
       id="g3172"
       transform="translate(266.18968,-324.31703)">
      <path
         id="path5695-4"
         transform="translate(1.3125275,628.60194)"
         d="m 1206.5938,324.875 c -63.433,0 -114.8438,51.41104 -114.8438,114.84375 0,63.43271 51.4108,114.84375 114.8438,114.84375 63.4324,0 114.875,-51.41104 114.875,-114.84375 0,-63.43271 -51.4426,-114.84375 -114.875,-114.84375 z m 0.031,42.40625 16.4688,32.625 -33,-0.0312 16.5312,-32.59375 z m -39.875,55.9375 0.031,33 -32.625,-16.46875 32.5938,-16.53125 z m 79.6875,0 32.5937,16.53125 -32.625,16.46875 0.031,-33 z m -23.3437,56.28125 -16.4688,32.625 -16.5312,-32.59375 33,-0.0312 z"
         style="fill:#c4c1bc;fill-opacity:1;stroke:#747b81;stroke-width:1.11594212;stroke-opacity:1"
         inkscape:connector-curvature="0" />
      <path
         id="rect4752-7-2"
         transform="translate(1.3125275,628.60194)"
         d="m 1189.2812,358.78125 c -4.5597,0 -8.2187,3.65859 -8.2187,8.21875 l 0,47.15625 -47.1563,0 c -4.5597,0 -8.25,3.6898 -8.25,8.25 l 0,34.59375 c 0,4.5602 3.6903,8.21875 8.25,8.21875 l 47.1563,0 0,47.15625 c 0,4.5602 3.659,8.25 8.2187,8.25 l 34.625,0 c 4.5605,0 8.2188,-3.6898 8.2188,-8.25 l 0,-47.15625 47.1562,0 c 4.5605,0 8.25,-3.65855 8.25,-8.21875 l 0,-34.59375 c 0,-4.5602 -3.6896,-8.25 -8.25,-8.25 l -47.1562,0 0,-47.15625 c 0,-4.56016 -3.6584,-8.21875 -8.2188,-8.21875 l -34.625,0 z m 17.3438,8.5 16.4688,32.625 -33,-0.0312 16.5312,-32.59375 z m -39.875,55.9375 0.031,33 -32.625,-16.46875 32.5938,-16.53125 z m 79.6875,0 32.5937,16.53125 -32.625,16.46875 0.031,-33 z m -23.3437,56.28125 -16.4688,32.625 -16.5312,-32.59375 33,-0.0312 z"
         style="fill:#485053;fill-opacity:1;stroke:#1a1c1b;stroke-width:3;stroke-linecap:butt;stroke-linejoin:bevel;stroke-miterlimit:4;stroke-opacity:1;stroke-dasharray:none"
         inkscape:connector-curvature="0" />
    </g>
  </g>
  <style>
    .labels {
        font-family: sans-serif;
        font-size: 13px;
        fill: #FFF;
        background: #000;
        font-weight: bold;
        
         paint-order: stroke;
        stroke: rgba(0,0,0,.5);
        stroke-width: 2px;
        stroke-linecap: butt;
        stroke-linejoin: miter;
    }
    .label-bg { 
        fill: #F00;
    }
  </style>
  <g
     inkscape:label="Layer 1"
     inkscape:groupmode="layer"
     id="layer1"
     transform="scale(2,2) translate(20,1)">>
<rect style="fill:#1599ff" x="325" y="60" width="73" height="20" rx="5" class="label-bg" />
<text x="360" y="75" class="labels" text-anchor="middle">Item X</text>

<rect style="fill:#39b54a"  x="281" y="95" width="73" height="20" rx="5" class="label-bg" />
<text x="316" y="110" class="labels" text-anchor="middle">Item Y</text>

<rect style="fill:#fe2e2e" x="377" y="95" width="63" height="20" rx="5" class="label-bg" />
<text x="408" y="110" class="labels" text-anchor="middle">Shield</text>

<rect style="fill:#ffc431" x="325" y="130" width="73" height="20" rx="5" class="label-bg" />
<text x="360" y="145" class="labels" text-anchor="middle">Sword</text>

<rect style="fill:#8a72e7" x="40" y="1" width="110" height="20" rx="5" class="label-bg" />
<text x="95" y="15" class="labels" text-anchor="middle">Change Item Y</text>

<rect style="fill:#b8b6db" x="305" y="1" width="110" height="20" rx="5" class="label-bg" />
<text x="360" y="15" class="labels" text-anchor="middle">Change Item X</text>
</g>
</svg>
